<?xml version="1.0" standalone="no"?>
<!DOCTYPE svg PUBLIC "-//W3C//DTD SVG 20010904//EN"
 "http://www.w3.org/TR/2001/REC-SVG-20010904/DTD/svg10.dtd">
<svg version="1.0" xmlns="http://www.w3.org/2000/svg"
 width="512.000000pt" height="512.000000pt" viewBox="0 0 512.000000 512.000000"
 preserveAspectRatio="xMidYMid meet">
<metadata>
Created by potrace 1.14, written by Peter Selinger 2001-2017
</metadata>
<g transform="translate(0.000000,512.000000) scale(0.100000,-0.100000)"
fill="#000000" stroke="none">
<path d="M1989 4891 c-18 -18 -29 -41 -30 -58 -1 -41 -1 -363 0 -395 2 -44 49
-90 93 -90 46 0 74 16 92 50 20 39 17 447 -4 479 -33 51 -107 58 -151 14z"/>
<path d="M1035 4648 c-80 -48 -73 -88 56 -310 115 -198 133 -216 202 -197 39
11 65 40 73 83 4 25 -21 80 -83 178 -12 21 -23 40 -23 42 0 12 -101 174 -118
189 -25 23 -81 31 -107 15z"/>
<path d="M2988 4645 c-40 -22 -238 -370 -238 -418 0 -76 88 -117 154 -73 23
14 215 340 228 384 8 28 -10 80 -35 100 -24 20 -79 24 -109 7z"/>
<path d="M2008 4065 c-2 -2 -33 -5 -70 -9 -511 -45 -958 -449 -1056 -956 -22
-112 -31 -287 -18 -360 3 -14 7 -44 10 -67 21 -162 145 -454 211 -497 28 -18
77 -21 106 -6 23 13 49 61 49 92 0 13 -23 61 -50 108 -28 47 -50 92 -50 100 0
9 -4 20 -9 26 -13 13 -50 138 -59 198 -4 28 -7 114 -6 191 0 164 20 257 85
395 264 563 958 757 1469 410 186 -126 327 -322 396 -547 30 -99 58 -133 111
-133 68 0 111 56 98 127 -22 120 -140 374 -208 449 -7 7 -30 34 -51 61 -98
119 -278 252 -435 319 -100 43 -243 81 -338 89 -91 8 -182 13 -185 10z"/>
<path d="M303 3925 c-27 -19 -46 -75 -38 -108 9 -36 34 -55 190 -144 232 -133
236 -134 292 -98 35 23 47 62 33 107 -8 30 -23 46 -66 73 -30 19 -57 35 -60
35 -3 0 -30 16 -60 35 -30 19 -57 35 -60 35 -3 0 -35 18 -71 40 -72 43 -122
51 -160 25z"/>
<path d="M3705 3931 c-6 -4 -35 -22 -65 -38 -140 -77 -277 -160 -292 -178 -31
-35 -22 -109 17 -137 54 -41 102 -25 294 96 22 15 43 26 46 26 12 0 120 73
132 89 7 9 13 33 13 54 0 54 -43 97 -97 97 -22 0 -43 -4 -48 -9z"/>
<path d="M74 2958 c-81 -22 -98 -129 -27 -175 24 -16 53 -18 233 -19 233 -1
262 5 284 58 8 18 12 45 9 60 -6 31 -48 77 -72 79 -70 5 -407 3 -427 -3z"/>
<path d="M3445 2953 c-258 -37 -485 -173 -639 -383 -38 -51 -44 -56 -67 -48
-153 57 -370 54 -529 -9 -171 -67 -347 -231 -409 -380 -12 -29 -14 -29 -59
-22 -69 10 -237 3 -318 -15 -231 -50 -424 -175 -571 -371 -120 -159 -183 -350
-185 -560 -3 -372 198 -697 538 -868 94 -47 164 -68 289 -88 74 -11 2798 -15
2905 -4 308 31 597 276 685 580 27 95 29 113 29 245 -1 144 -16 213 -74 335
-48 103 -82 151 -160 231 -80 82 -171 141 -282 186 -48 19 -86 37 -83 40 5 5
14 80 19 148 5 77 -13 215 -39 305 -63 217 -202 405 -390 529 -71 47 -208 112
-254 121 -9 1 -34 8 -56 13 -103 28 -227 33 -350 15z m243 -198 c158 -19 349
-123 454 -246 132 -156 190 -310 190 -504 -1 -44 -8 -114 -18 -155 -29 -132
-29 -142 3 -177 21 -23 44 -34 88 -43 235 -48 407 -197 481 -417 49 -142 39
-318 -24 -453 -79 -170 -244 -304 -422 -344 -36 -7 -72 -14 -80 -14 -127 -3
-2813 0 -2833 3 -159 21 -319 100 -432 213 -55 54 -70 73 -100 117 -206 313
-158 726 114 977 113 104 231 163 385 193 67 13 224 13 276 0 14 -4 45 -9 70
-12 55 -6 93 19 111 75 64 199 225 344 426 385 115 23 232 10 343 -41 109 -49
142 -38 200 65 114 202 319 343 548 377 87 12 122 13 220 1z"/>
<path d="M472 2064 c-214 -124 -236 -149 -197 -224 12 -23 55 -57 77 -61 21
-4 386 201 415 233 29 32 23 102 -11 133 -50 46 -81 37 -284 -81z"/>
</g>
</svg>
